# xmcd CD database file
#
# Track frame offsets:
#	150
#	22329
#	39240
#	48653
#	74235
#	107287
#	131227
#	158152
#	186779
#	207064
#	220331
#
# Disc length: 3279 seconds
#
# Revision: 0
# Processed by: cddbd v1.5.2PL0 Copyright (c) Steve Scherf et al.
# Submitted via: CDex 1.70beta2
#
DISCID=a50ccd0b
DTITLE=Mathias Schabow - Seebrücke
DYEAR=2012
DGENRE=Jazz
TTITLE0=F108
TTITLE1=Ruhige See
TTITLE2=Impro Part 1
TTITLE3=Aquilone
TTITLE4=Impro Part 2
TTITLE5=Umarmung
TTITLE6=Ein kurzer Blick zurück
TTITLE7=Impro Part 3
TTITLE8=Impro Part 4
TTITLE9=Der Weg II
TTITLE10=Seebrücke
EXTD=YEAR: 2012
EXTT0=
EXTT1=
EXTT2=
EXTT3=
EXTT4=
EXTT5=
EXTT6=
EXTT7=
EXTT8=
EXTT9=
EXTT10=
PLAYORDER=
